<svg xmlns="http://www.w3.org/2000/svg" xmlns:xlink="http://www.w3.org/1999/xlink" width="1000" zoomAndPan="magnify" viewBox="0 0 750 119.999999" height="160" preserveAspectRatio="xMidYMid meet" version="1.0"><path fill="#fcfbfb" d="M -382.445312 57.574219 L -382.445312 794.824219 L 1092.054688 794.824219 L 1092.054688 -679.675781 L -382.445312 -679.675781 L -382.445312 57.574219 M 302.246094 24.457031 L 302.246094 32.375 L 291.804688 32.796875 L 281.367188 33.222656 L 281.367188 15.691406 L 291.804688 16.109375 L 302.246094 16.535156 L 302.246094 24.457031 M 567.917969 31.1875 L 567.917969 46.554688 L 571.585938 43.109375 C 577.128906 37.898438 592.597656 37.269531 599.472656 41.96875 C 606.734375 46.929688 607.996094 52.210938 608.121094 78.089844 L 608.234375 100.773438 L 586.636719 100.773438 L 586.636719 82.328125 C 586.636719 61.964844 585.839844 59.605469 578.503906 58.164062 C 569.65625 56.425781 567.917969 60.355469 567.917969 82.054688 L 567.917969 100.773438 L 546.316406 100.773438 L 546.316406 15.816406 L 567.917969 15.816406 L 567.917969 31.1875 M 63.371094 22.261719 C 77.824219 26.554688 82.65625 36.296875 82.65625 61.175781 C 82.65625 94.597656 73.609375 103.179688 39.640625 101.972656 C 10.996094 100.960938 4.179688 93.125 4.179688 61.210938 C 4.179688 34.761719 9.214844 25.402344 25.546875 21.515625 C 33.632812 19.585938 55.847656 20.023438 63.371094 22.261719 M 33.957031 38.96875 C 20.359375 43.125 21.53125 79.828125 35.371094 83.558594 C 55.457031 88.964844 63.75 78.945312 60.886719 52.75 C 59.449219 39.621094 49.117188 34.335938 33.957031 38.96875 M 115.773438 43.386719 L 115.773438 47.914062 L 119.253906 44.164062 C 125.945312 36.9375 142.460938 36.832031 148.601562 43.972656 C 151.785156 47.671875 152.207031 47.800781 153.515625 45.460938 C 157.003906 39.226562 175.566406 36.582031 183.394531 41.210938 C 191.605469 46.0625 192.761719 50.203125 193.289062 76.652344 L 193.773438 100.773438 L 171.933594 100.773438 L 171.933594 82.054688 C 171.933594 62.101562 170.382812 57.574219 163.566406 57.574219 C 156.449219 57.574219 155.398438 60.429688 154.902344 81.214844 L 154.429688 100.773438 L 133.054688 100.773438 L 133.03125 81.691406 C 133.003906 60.609375 132.671875 59.441406 126.378906 58.183594 C 118.34375 56.574219 117.214844 59.445312 117.214844 81.433594 L 117.214844 100.773438 L 95.617188 100.773438 L 95.617188 38.855469 L 115.773438 38.855469 L 115.773438 43.386719 M 228.117188 43.894531 C 228.703125 47.183594 229.117188 47.628906 229.855469 45.769531 C 232.707031 38.546875 254.410156 36.300781 261.273438 42.515625 C 267.753906 48.378906 268.796875 52.761719 269.539062 77.351562 L 270.25 100.773438 L 248.585938 100.773438 L 247.996094 81.875 C 247.328125 60.347656 245.324219 56.355469 236.105469 58.199219 C 229.277344 59.566406 228.835938 60.871094 228.335938 81.402344 L 227.863281 100.773438 L 206.492188 100.773438 L 206.492188 38.730469 L 216.917969 39.148438 C 227.257812 39.570312 227.355469 39.613281 228.117188 43.894531 M 302.96875 69.8125 L 302.96875 100.773438 L 281.367188 100.773438 L 281.367188 38.855469 L 302.96875 38.855469 L 302.96875 69.8125 M 333.824219 52.171875 C 338.066406 76.085938 337.632812 75.726562 341.308594 58.359375 C 343.140625 49.679688 344.964844 41.746094 345.359375 40.714844 C 346.332031 38.179688 364.304688 38.121094 365.234375 40.652344 C 365.597656 41.644531 367.425781 49.90625 369.296875 59.015625 L 372.703125 75.574219 L 375.21875 60.453125 C 379.175781 36.648438 377.65625 38.855469 390.109375 38.855469 C 396.449219 38.855469 400.882812 39.457031 400.882812 40.316406 C 400.882812 41.125 397.558594 55.054688 393.5 71.277344 L 386.125 100.773438 L 362.585938 100.773438 L 358.972656 86.011719 L 355.355469 71.253906 L 348.324219 100.050781 L 336.445312 100.46875 C 329.910156 100.699219 324.5625 100.699219 324.558594 100.46875 C 324.554688 100.238281 321.050781 86.28125 316.777344 69.453125 L 309.003906 38.855469 L 331.464844 38.855469 L 333.824219 52.171875 M 456.988281 42.511719 C 466.328125 47.984375 467.777344 52.539062 468.324219 78.089844 L 468.8125 100.773438 L 458.605469 100.773438 C 450.84375 100.773438 448.402344 100.289062 448.402344 98.765625 C 448.402344 97.183594 447.277344 97.332031 443.054688 99.484375 C 430.28125 106 411.605469 101.792969 407.273438 91.429688 C 399.824219 73.597656 409.898438 63.335938 434.851562 63.335938 L 448.75 63.335938 L 446.609375 60.109375 C 443.4375 55.328125 435.277344 53.933594 421.863281 55.882812 C 408.300781 57.851562 408.773438 58.152344 410.390625 48.617188 C 411.964844 39.347656 413.136719 38.929688 436.160156 39.320312 C 449.15625 39.539062 452.894531 40.113281 456.988281 42.511719 M 530.835938 40.960938 C 532.835938 41.820312 533.359375 43.824219 533.359375 50.679688 C 533.359375 58.332031 533.066406 59.207031 530.835938 58.316406 C 529.449219 57.765625 524.335938 56.640625 519.464844 55.816406 C 498.875 52.328125 492.53125 59.398438 512.496094 63.582031 C 534.480469 68.1875 541.273438 77.480469 533.945312 92.925781 C 529.886719 101.480469 494.339844 106.164062 479.71875 100.070312 C 474.816406 98.03125 476.160156 82.925781 481.15625 83.921875 C 498.5 87.378906 513.742188 86.671875 512.925781 82.441406 C 512.609375 80.792969 509.042969 79.378906 500.675781 77.574219 C 479.40625 73 471.128906 59.746094 481.128906 46.261719 C 486.113281 39.53125 519.265625 35.996094 530.835938 40.960938 M 663.25 40.355469 C 674.480469 43.472656 682.128906 57.808594 679.636719 71.085938 L 678.660156 76.292969 L 657.847656 76.292969 C 646 76.292969 637.035156 76.867188 637.035156 77.628906 C 637.035156 83.050781 648.652344 85.832031 665.382812 84.421875 L 676.050781 83.515625 L 675.621094 91.773438 C 675.109375 101.613281 674.675781 101.808594 652.871094 101.976562 C 626.410156 102.183594 616.976562 94.089844 616.902344 71.109375 C 616.820312 44.875 635.324219 32.59375 663.25 40.355469 M 708.078125 43.113281 L 708.929688 47.371094 L 713.1875 43.113281 C 717.15625 39.144531 718.191406 38.855469 728.355469 38.855469 L 739.269531 38.855469 L 739.269531 60.78125 L 732.738281 59.800781 C 716.574219 57.378906 711.910156 63.15625 711.910156 85.582031 L 711.910156 100.773438 L 690.3125 100.773438 L 690.3125 38.855469 L 698.769531 38.855469 C 706.988281 38.855469 707.253906 38.976562 708.078125 43.113281 M 641.351562 55.109375 C 632.339844 59.652344 635.820312 63.335938 649.125 63.335938 C 661.261719 63.335938 661.402344 63.289062 660.234375 60.09375 C 657.992188 53.964844 648.5625 51.476562 641.351562 55.109375 M 428.601562 77.777344 C 424.496094 79.429688 424.386719 84.308594 428.40625 86.457031 C 435.257812 90.128906 448.402344 85.273438 448.402344 79.066406 C 448.402344 75.980469 435.21875 75.117188 428.601562 77.777344 " fill-opacity="1" fill-rule="evenodd"/><path fill="#fc4708" d="M 283.15625 17.480469 C 276.867188 23.765625 282.425781 33.113281 292.433594 33.070312 C 300.542969 33.042969 301.769531 31.722656 301.253906 23.597656 L 300.808594 16.535156 L 292.875 16.113281 C 287.949219 15.851562 284.265625 16.367188 283.15625 17.480469 M 546.316406 58.292969 L 546.316406 100.773438 L 566.476562 100.773438 L 566.476562 82.054688 C 566.476562 60.828125 567.871094 57.550781 576.914062 57.59375 C 586.296875 57.640625 588.074219 61.894531 588.074219 84.304688 L 588.074219 100.773438 L 606.792969 100.773438 L 606.792969 77.6875 C 606.792969 52.449219 605.527344 46.679688 599.046875 42.4375 C 590.332031 36.722656 576.621094 38.539062 570.121094 46.261719 L 566.476562 50.59375 L 566.476562 15.816406 L 546.316406 15.816406 L 546.316406 58.292969 M 28.15625 21.679688 C 10.296875 25.195312 5.617188 33.390625 5.617188 61.175781 C 5.617188 92.335938 11.667969 99.875 38.175781 101.730469 C 70.558594 103.996094 81.9375 93.460938 81.9375 61.175781 C 81.9375 26.832031 65.046875 14.425781 28.15625 21.679688 M 54.550781 38.84375 C 59.871094 40.867188 62.496094 48.25 62.496094 61.175781 C 62.496094 80.152344 58.578125 84.933594 43.03125 84.933594 C 29.386719 84.933594 25.519531 81.226562 24.015625 66.722656 C 21.535156 42.828125 34.324219 31.152344 54.550781 38.84375 M 95.617188 69.8125 L 95.617188 100.773438 L 115.773438 100.773438 L 115.773438 82.375 C 115.773438 60.992188 117.0625 57.574219 125.132812 57.574219 C 133.203125 57.574219 134.492188 60.992188 134.492188 82.375 L 134.492188 100.773438 L 154.652344 100.773438 L 154.652344 81.433594 C 154.652344 59.769531 155.507812 57.574219 163.9375 57.574219 C 171.632812 57.574219 172.59375 60.074219 173.152344 81.550781 L 173.652344 100.773438 L 192.089844 100.773438 L 192.058594 78.089844 C 192.023438 51.515625 190.277344 45.375 181.617188 41.265625 C 172.160156 36.777344 158.832031 39.210938 154.886719 46.144531 C 152.304688 50.679688 150.332031 51.625 150.332031 48.316406 C 150.332031 37.964844 124.824219 36.25 118.777344 46.195312 L 116.160156 50.5 L 115.230469 44.675781 L 114.296875 38.855469 L 95.617188 38.855469 L 95.617188 69.8125 M 207.929688 69.8125 L 207.929688 100.773438 L 226.648438 100.773438 L 226.648438 85.28125 C 226.648438 61.835938 228.4375 57.636719 238.445312 57.59375 C 247.015625 57.558594 248.25 60.675781 248.25 82.375 L 248.25 100.773438 L 268.410156 100.773438 L 268.371094 80.25 C 268.351562 68.96875 267.742188 57.140625 267.007812 53.972656 C 263.609375 39.242188 243.015625 33.785156 232.082031 44.71875 C 226.785156 50.015625 226.648438 50 226.648438 43.894531 L 226.648438 38.855469 L 207.929688 38.855469 L 207.929688 69.8125 M 282.808594 69.8125 L 282.808594 100.773438 L 301.527344 100.773438 L 301.527344 38.855469 L 282.808594 38.855469 L 282.808594 69.8125 M 311.113281 42.8125 C 311.664062 44.992188 315.117188 58.761719 318.785156 73.414062 L 325.457031 100.050781 L 336.398438 100.46875 L 347.335938 100.886719 L 350.378906 87.507812 C 352.058594 80.152344 353.832031 72.515625 354.324219 70.535156 C 355.03125 67.710938 355.8125 69.425781 357.941406 78.453125 C 359.433594 84.789062 361.304688 92.402344 362.105469 95.371094 L 363.554688 100.773438 L 384.929688 100.773438 L 386.355469 95.371094 C 387.136719 92.402344 390.648438 78.472656 394.160156 64.410156 L 400.554688 38.855469 L 379.691406 38.855469 L 376.304688 59.371094 C 374.445312 70.660156 372.707031 78.921875 372.449219 77.734375 C 372.1875 76.542969 370.21875 67.476562 368.066406 57.574219 L 364.160156 39.574219 L 355.351562 39.148438 L 346.546875 38.726562 L 342.40625 58.167969 C 340.128906 68.859375 337.890625 77.152344 337.4375 76.589844 C 336.984375 76.03125 335.425781 68.121094 333.980469 59.015625 C 330.511719 37.195312 331.652344 38.855469 320.0625 38.855469 L 310.109375 38.855469 L 311.113281 42.8125 M 423.921875 39.554688 C 422.734375 39.855469 419.332031 40.5 416.359375 40.984375 L 410.960938 41.867188 L 410.960938 57.269531 L 416.359375 56.019531 C 430.359375 52.765625 447.066406 55.304688 448.132812 60.851562 C 448.554688 63.039062 447.195312 63.335938 436.628906 63.34375 C 413.765625 63.355469 405.859375 68.796875 406.9375 83.765625 C 408.160156 100.660156 427.863281 108.074219 444.875 98.039062 C 449.78125 95.144531 449.839844 95.144531 449.839844 97.941406 C 449.839844 100.445312 450.847656 100.773438 458.605469 100.773438 L 467.367188 100.773438 L 466.882812 77.113281 C 466.339844 50.457031 465.425781 47.804688 455.046875 42.648438 C 449.976562 40.125 429.625 38.105469 423.921875 39.554688 M 492.167969 40.390625 C 482.957031 42.617188 479.359375 47.449219 479.359375 57.574219 C 479.359375 70.691406 482.644531 73.28125 505.011719 77.746094 C 513.457031 79.429688 516.9375 82.59375 513.046875 85.054688 C 510.464844 86.6875 491.078125 86.683594 484.039062 85.050781 L 478.640625 83.796875 L 478.640625 99.203125 L 484.039062 100.335938 C 494.328125 102.5 522.113281 101.636719 527.03125 98.992188 C 532.898438 95.84375 535.339844 89.679688 534.441406 80.328125 C 533.402344 69.488281 531.351562 68.152344 508.425781 63.386719 C 499.929688 61.621094 496.585938 58.507812 500.386719 55.90625 C 502.550781 54.425781 525.242188 55.167969 529.394531 56.859375 C 531.613281 57.757812 531.917969 56.9375 531.917969 49.976562 C 531.917969 43.003906 531.53125 41.960938 528.675781 41.160156 C 522.660156 39.46875 498.121094 38.953125 492.167969 40.390625 M 637.652344 40.121094 C 624.160156 43.609375 618.023438 52.753906 617.917969 69.527344 C 617.757812 94.460938 629.957031 104.085938 658.632812 101.644531 C 675.921875 100.175781 675.910156 100.183594 675.910156 91.605469 L 675.90625 84.214844 L 658.777344 84.214844 C 643.953125 84.214844 641.238281 83.839844 638.617188 81.46875 C 633.484375 76.816406 634.925781 76.378906 656.832031 75.972656 L 678.070312 75.574219 L 678.472656 66.933594 C 679.445312 46.253906 660.9375 34.101562 637.652344 40.121094 M 690.3125 69.742188 L 690.3125 100.773438 L 710.46875 100.773438 L 710.480469 87.449219 C 710.488281 63.617188 714.398438 58.027344 730.144531 59.332031 L 737.828125 59.96875 L 737.828125 38.53125 L 727.855469 39.09375 C 717.164062 39.695312 713.027344 41.980469 710.023438 48.933594 C 708.558594 52.335938 708.429688 52.179688 707.667969 46.054688 L 706.871094 39.574219 L 698.589844 39.140625 L 690.3125 38.710938 L 690.3125 69.742188 M 658.3125 55.496094 C 665.824219 60.757812 662.621094 63.335938 648.554688 63.335938 C 636.675781 63.335938 635.59375 63.097656 635.59375 60.535156 C 635.59375 56.371094 641.144531 53.253906 648.554688 53.253906 C 652.160156 53.253906 656.546875 54.261719 658.3125 55.496094 M 449.839844 78.519531 C 449.839844 83.605469 443.15625 87.8125 435.074219 87.8125 C 424.75 87.8125 420.917969 83.820312 426.183594 78.554688 C 429.429688 75.308594 449.839844 75.273438 449.839844 78.519531 " fill-opacity="1" fill-rule="evenodd"/><path fill="#fcba9e" d="M 207.101562 69.8125 C 207.101562 87.238281 207.3125 94.167969 207.5625 85.214844 C 207.816406 76.257812 207.816406 62.003906 207.5625 53.535156 C 207.308594 45.0625 207.101562 52.390625 207.101562 69.8125 M 302.136719 69.8125 C 302.140625 87.238281 302.347656 94.167969 302.601562 85.214844 C 302.851562 76.257812 302.851562 62.003906 302.597656 53.535156 C 302.34375 45.0625 302.136719 52.390625 302.136719 69.8125 M 133.574219 79.171875 C 133.574219 86.695312 133.8125 89.773438 134.109375 86.011719 C 134.40625 82.25 134.40625 76.09375 134.109375 72.332031 C 133.8125 68.570312 133.574219 71.648438 133.574219 79.171875 M 710.929688 84.933594 C 710.929688 90.078125 711.191406 92.1875 711.511719 89.609375 C 711.832031 87.039062 711.832031 82.828125 711.511719 80.25 C 711.191406 77.679688 710.929688 79.78125 710.929688 84.933594 " fill-opacity="1" fill-rule="evenodd"/><path fill="#fcccbc" d="M 566.476562 32.375 C 566.476562 41.746094 566.878906 49.011719 567.375 48.511719 C 568.371094 47.515625 568.121094 16.980469 567.109375 15.96875 C 566.757812 15.621094 566.476562 23.003906 566.476562 32.375 M 738.320312 49.65625 C 738.328125 55.988281 738.578125 58.402344 738.882812 55.015625 C 739.1875 51.628906 739.183594 46.445312 738.875 43.496094 C 738.5625 40.546875 738.316406 43.320312 738.320312 49.65625 M 409.855469 53.253906 C 409.855469 56.023438 410.152344 57.160156 410.515625 55.773438 C 410.875 54.386719 410.875 52.121094 410.515625 50.734375 C 410.152344 49.347656 409.855469 50.480469 409.855469 53.253906 M 679.183594 66.214844 C 679.183594 69.777344 679.460938 71.234375 679.804688 69.453125 C 680.148438 67.671875 680.148438 64.753906 679.804688 62.972656 C 679.460938 61.191406 679.183594 62.648438 679.183594 66.214844 M 268.972656 82.054688 C 268.972656 92.742188 269.199219 97.121094 269.472656 91.769531 C 269.75 86.425781 269.75 77.679688 269.472656 72.332031 C 269.199219 66.988281 268.972656 71.359375 268.972656 82.054688 M 116.328125 83.492188 C 116.328125 93.394531 116.558594 97.441406 116.835938 92.492188 C 117.121094 87.542969 117.121094 79.445312 116.835938 74.492188 C 116.558594 69.542969 116.328125 73.59375 116.328125 83.492188 M 567.023438 84.214844 C 567.027344 93.71875 567.261719 97.417969 567.539062 92.433594 C 567.824219 87.453125 567.820312 79.679688 567.535156 75.15625 C 567.253906 70.632812 567.019531 74.707031 567.023438 84.214844 M 477.644531 91.414062 C 477.652344 96.164062 477.921875 97.933594 478.242188 95.347656 C 478.5625 92.757812 478.554688 88.871094 478.226562 86.707031 C 477.898438 84.542969 477.636719 86.660156 477.644531 91.414062 M 133.386719 96.453125 C 133.386719 99.222656 133.683594 100.355469 134.046875 98.96875 C 134.40625 97.585938 134.40625 95.316406 134.046875 93.929688 C 133.683594 92.542969 133.386719 93.679688 133.386719 96.453125 " fill-opacity="1" fill-rule="evenodd"/><path fill="#fca47c" d="M 301.503906 24.160156 L 302.199219 32.375 L 302.667969 25.332031 C 302.925781 21.464844 302.613281 17.765625 301.972656 17.121094 C 301.332031 16.480469 301.121094 19.644531 301.503906 24.160156 M 281.980469 69.8125 C 281.980469 87.238281 282.1875 94.167969 282.441406 85.214844 C 282.695312 76.257812 282.691406 62.003906 282.4375 53.535156 C 282.183594 45.0625 281.976562 52.390625 281.980469 69.8125 M 532.363281 49.65625 C 532.371094 54.40625 532.640625 56.175781 532.960938 53.589844 C 533.28125 51 533.273438 47.113281 532.945312 44.949219 C 532.617188 42.785156 532.355469 44.902344 532.363281 49.65625 M 3.929688 61.175781 C 3.933594 66.714844 4.195312 68.808594 4.511719 65.820312 C 4.820312 62.832031 4.816406 58.296875 4.496094 55.742188 C 4.179688 53.1875 3.925781 55.628906 3.929688 61.175781 M 24.085938 61.175781 C 24.09375 66.714844 24.355469 68.808594 24.667969 65.820312 C 24.980469 62.832031 24.972656 58.296875 24.65625 55.742188 C 24.339844 53.1875 24.085938 55.628906 24.085938 61.175781 M 607.371094 79.894531 C 607.371094 91.769531 607.59375 96.441406 607.863281 90.265625 C 608.132812 84.09375 608.132812 74.371094 607.859375 68.664062 C 607.589844 62.960938 607.367188 68.011719 607.371094 79.894531 M 192.65625 81.332031 C 192.660156 92.417969 192.886719 96.765625 193.160156 90.988281 C 193.433594 85.214844 193.433594 76.140625 193.15625 70.828125 C 192.882812 65.515625 192.65625 70.242188 192.65625 81.332031 M 467.679688 82.773438 C 467.679688 93.066406 467.910156 97.089844 468.1875 91.710938 C 468.464844 86.332031 468.464844 77.910156 468.183594 72.992188 C 467.90625 68.074219 467.675781 72.476562 467.679688 82.773438 M 172.484375 83.492188 C 172.484375 93.394531 172.71875 97.441406 172.996094 92.492188 C 173.277344 87.542969 173.277344 79.445312 172.996094 74.492188 C 172.71875 69.542969 172.484375 73.59375 172.484375 83.492188 M 587.1875 83.492188 C 587.1875 93.394531 587.421875 97.441406 587.699219 92.492188 C 587.980469 87.542969 587.980469 79.445312 587.699219 74.492188 C 587.421875 69.542969 587.1875 73.59375 587.1875 83.492188 M 227.199219 84.214844 C 227.199219 93.71875 227.433594 97.417969 227.714844 92.433594 C 227.996094 87.453125 227.996094 79.679688 227.710938 75.15625 C 227.425781 70.632812 227.195312 74.707031 227.199219 84.214844 " fill-opacity="1" fill-rule="evenodd"/></svg>