<svg id="svg" version="1.1" xmlns="http://www.w3.org/2000/svg" xmlns:xlink="http://www.w3.org/1999/xlink" width="400" height="400" viewBox="0, 0, 400,400"><g id="svgg"><path id="path0" d="M0.000 200.000 L 0.000 400.000 200.000 400.000 L 400.000 400.000 400.000 200.000 L 400.000 0.000 200.000 0.000 L 0.000 0.000 0.000 200.000 M185.742 191.016 L 185.742 193.164 182.910 193.279 L 180.078 193.394 180.078 191.016 L 180.078 188.638 182.910 188.752 L 185.742 188.867 185.742 191.016 M257.813 192.842 L 257.813 197.011 258.808 196.076 C 260.312 194.663,264.508 194.492,266.374 195.767 C 268.343 197.113,268.686 198.545,268.720 205.566 L 268.750 211.719 265.820 211.719 L 262.891 211.719 262.891 206.715 C 262.891 201.191,262.675 200.551,260.685 200.160 C 258.285 199.689,257.813 200.755,257.813 206.641 L 257.813 211.719 254.883 211.719 L 251.953 211.719 251.953 200.195 L 251.953 188.672 254.883 188.672 L 257.813 188.672 257.813 192.842 M120.941 190.421 C 124.862 191.585,126.172 194.228,126.172 200.977 C 126.172 210.044,123.718 212.372,114.503 212.045 C 106.733 211.770,104.883 209.644,104.883 200.987 C 104.883 193.812,106.249 191.273,110.680 190.218 C 112.873 189.695,118.900 189.814,120.941 190.421 M112.961 194.953 C 109.273 196.080,109.590 206.037,113.345 207.049 C 118.794 208.516,121.044 205.798,120.267 198.691 C 119.877 195.130,117.074 193.696,112.961 194.953 M135.156 196.151 L 135.156 197.380 136.100 196.362 C 137.916 194.402,142.396 194.373,144.062 196.310 C 144.926 197.314,145.040 197.349,145.395 196.714 C 146.341 195.023,151.377 194.306,153.500 195.561 C 155.728 196.877,156.042 198.001,156.185 205.176 L 156.316 211.719 153.353 211.719 L 150.391 211.719 150.391 206.641 C 150.391 201.228,149.971 200.000,148.122 200.000 C 146.191 200.000,145.906 200.775,145.771 206.413 L 145.643 211.719 142.743 211.719 L 139.844 211.719 139.838 206.543 C 139.831 200.824,139.741 200.507,138.033 200.165 C 135.854 199.729,135.547 200.508,135.547 206.473 L 135.547 211.719 132.617 211.719 L 129.688 211.719 129.688 203.320 L 129.688 194.922 132.422 194.922 L 135.156 194.922 135.156 196.151 M165.633 196.289 C 165.792 197.181,165.904 197.302,166.104 196.798 C 166.878 194.839,172.765 194.229,174.627 195.915 C 176.385 197.506,176.668 198.695,176.870 205.365 L 177.063 211.719 174.124 211.719 L 171.186 211.719 171.026 206.593 C 170.844 200.753,170.301 199.670,167.800 200.170 C 165.947 200.541,165.828 200.895,165.692 206.464 L 165.564 211.719 162.665 211.719 L 159.766 211.719 159.766 203.303 L 159.766 194.888 162.595 195.002 C 165.400 195.116,165.426 195.128,165.633 196.289 M185.938 203.320 L 185.938 211.719 183.008 211.719 L 180.078 211.719 180.078 203.320 L 180.078 194.922 183.008 194.922 L 185.938 194.922 185.938 203.320 M194.309 198.535 C 195.460 205.022,195.342 204.925,196.339 200.213 C 196.836 197.859,197.331 195.706,197.438 195.427 C 197.702 194.739,202.578 194.723,202.830 195.410 C 202.928 195.679,203.424 197.920,203.932 200.391 L 204.856 204.883 205.538 200.781 C 206.612 194.324,206.200 194.922,209.578 194.922 C 211.298 194.922,212.500 195.085,212.500 195.319 C 212.500 195.538,211.599 199.317,210.498 203.718 L 208.497 211.719 205.304 211.719 L 202.111 211.719 201.131 207.715 L 200.150 203.711 199.196 207.617 L 198.242 211.523 195.020 211.637 C 193.247 211.699,191.796 211.699,191.795 211.637 C 191.794 211.574,190.844 207.788,189.684 203.223 L 187.576 194.922 190.622 194.922 L 193.669 194.922 194.309 198.535 M227.721 195.914 C 230.254 197.399,230.647 198.634,230.796 205.566 L 230.928 211.719 228.159 211.719 C 226.054 211.719,225.391 211.588,225.391 211.175 C 225.391 210.745,225.086 210.786,223.941 211.370 C 220.476 213.137,215.409 211.996,214.234 209.184 C 212.213 204.347,214.946 201.563,221.715 201.563 L 225.486 201.563 224.905 200.688 C 224.044 199.391,221.831 199.013,218.192 199.541 C 214.513 200.075,214.641 200.157,215.080 197.570 C 215.507 195.056,215.825 194.942,222.070 195.048 C 225.596 195.108,226.610 195.263,227.721 195.914 M247.754 195.493 C 248.296 195.726,248.438 196.270,248.438 198.130 C 248.438 200.206,248.359 200.443,247.754 200.202 C 247.378 200.052,245.990 199.747,244.669 199.523 C 239.084 198.577,237.363 200.495,242.779 201.630 C 248.743 202.879,250.585 205.400,248.597 209.590 C 247.496 211.911,237.853 213.182,233.887 211.529 C 232.557 210.975,232.922 206.878,234.277 207.148 C 238.982 208.086,243.117 207.894,242.895 206.746 C 242.809 206.299,241.842 205.915,239.572 205.426 C 233.802 204.185,231.557 200.589,234.269 196.931 C 235.622 195.106,244.615 194.147,247.754 195.493 M283.675 195.329 C 286.722 196.175,288.796 200.064,288.120 203.666 L 287.855 205.078 282.209 205.078 C 278.995 205.078,276.563 205.234,276.563 205.441 C 276.563 206.911,279.715 207.666,284.254 207.283 L 287.148 207.038 287.031 209.278 C 286.892 211.947,286.775 212.000,280.859 212.046 C 273.681 212.102,271.122 209.906,271.102 203.672 C 271.080 196.555,276.099 193.224,283.675 195.329 M295.836 196.077 L 296.067 197.232 297.222 196.077 C 298.299 195.001,298.579 194.922,301.337 194.922 L 304.297 194.922 304.297 197.896 L 304.297 200.870 302.526 200.604 C 298.141 199.947,296.875 201.514,296.875 207.598 L 296.875 211.719 293.945 211.719 L 291.016 211.719 291.016 203.320 L 291.016 194.922 293.311 194.922 C 295.540 194.922,295.612 194.955,295.836 196.077 M277.734 199.332 C 275.290 200.564,276.234 201.563,279.843 201.563 C 283.136 201.563,283.174 201.551,282.857 200.684 C 282.249 199.021,279.691 198.346,277.734 199.332 M220.020 205.481 C 218.906 205.929,218.876 207.253,219.967 207.836 C 221.826 208.832,225.391 207.514,225.391 205.831 C 225.391 204.993,221.815 204.759,220.020 205.481 " stroke="none" fill="#fcfbfb" fill-rule="evenodd"></path><path id="path1" d="M180.564 189.124 C 178.858 190.829,180.366 193.364,183.080 193.353 C 185.280 193.345,185.613 192.987,185.473 190.783 L 185.352 188.867 183.200 188.753 C 181.864 188.682,180.865 188.822,180.564 189.124 M251.953 200.195 L 251.953 211.719 254.688 211.719 L 257.422 211.719 257.422 206.641 C 257.422 200.883,257.801 199.994,260.254 200.006 C 262.799 200.018,263.281 201.172,263.281 207.252 L 263.281 211.719 265.820 211.719 L 268.359 211.719 268.359 205.456 C 268.359 198.610,268.016 197.045,266.258 195.894 C 263.894 194.344,260.174 194.836,258.411 196.931 L 257.422 198.107 257.422 193.389 L 257.422 188.672 254.688 188.672 L 251.953 188.672 251.953 200.195 M111.388 190.263 C 106.543 191.216,105.273 193.440,105.273 200.977 C 105.273 209.430,106.915 211.475,114.106 211.979 C 122.891 212.594,125.977 209.735,125.977 200.977 C 125.977 191.660,121.395 188.295,111.388 190.263 M118.548 194.919 C 119.991 195.468,120.703 197.471,120.703 200.977 C 120.703 206.125,119.641 207.422,115.423 207.422 C 111.721 207.422,110.672 206.417,110.264 202.482 C 109.592 196.000,113.061 192.833,118.548 194.919 M129.688 203.320 L 129.688 211.719 132.422 211.719 L 135.156 211.719 135.156 206.728 C 135.156 200.927,135.506 200.000,137.695 200.000 C 139.885 200.000,140.234 200.927,140.234 206.728 L 140.234 211.719 142.969 211.719 L 145.703 211.719 145.703 206.473 C 145.703 200.596,145.935 200.000,148.222 200.000 C 150.310 200.000,150.570 200.678,150.722 206.505 L 150.858 211.719 153.359 211.719 L 155.859 211.719 155.851 205.566 C 155.841 198.357,155.368 196.691,153.018 195.576 C 150.453 194.359,146.837 195.019,145.767 196.900 C 145.067 198.130,144.531 198.386,144.531 197.489 C 144.531 194.681,137.612 194.215,135.971 196.913 L 135.261 198.081 135.009 196.501 L 134.756 194.922 132.222 194.922 L 129.688 194.922 129.688 203.320 M160.156 203.320 L 160.156 211.719 162.695 211.719 L 165.234 211.719 165.234 207.517 C 165.234 201.156,165.720 200.017,168.435 200.006 C 170.759 199.996,171.094 200.842,171.094 206.728 L 171.094 211.719 173.828 211.719 L 176.563 211.719 176.553 206.152 C 176.548 203.091,176.382 199.883,176.183 199.023 C 175.261 195.027,169.674 193.547,166.708 196.513 C 165.271 197.950,165.234 197.945,165.234 196.289 L 165.234 194.922 162.695 194.922 L 160.156 194.922 160.156 203.320 M180.469 203.320 L 180.469 211.719 183.008 211.719 L 185.547 211.719 185.547 203.320 L 185.547 194.922 183.008 194.922 L 180.469 194.922 180.469 203.320 M188.148 195.996 C 188.297 196.587,189.234 200.322,190.229 204.297 L 192.039 211.523 195.007 211.637 L 197.974 211.750 198.800 208.121 C 199.255 206.125,199.736 204.053,199.870 203.516 C 200.062 202.750,200.274 203.215,200.851 205.664 C 201.256 207.383,201.764 209.448,201.981 210.254 L 202.374 211.719 205.273 211.719 L 208.173 211.719 208.559 210.254 C 208.771 209.448,209.724 205.669,210.677 201.855 L 212.411 194.922 209.581 194.922 L 206.752 194.922 205.833 200.488 C 205.328 203.550,204.857 205.791,204.787 205.469 C 204.716 205.146,204.182 202.686,203.598 200.000 L 202.538 195.117 200.149 195.002 L 197.760 194.887 196.637 200.161 C 196.019 203.062,195.412 205.311,195.289 205.159 C 195.166 205.007,194.743 202.861,194.351 200.391 C 193.410 194.472,193.720 194.922,190.576 194.922 L 187.876 194.922 188.148 195.996 M218.750 195.112 C 218.428 195.194,217.505 195.368,216.699 195.500 L 215.234 195.739 215.234 197.828 L 215.234 199.918 216.699 199.578 C 220.497 198.696,225.029 199.385,225.318 200.889 C 225.433 201.483,225.064 201.563,222.197 201.565 C 215.995 201.569,213.850 203.045,214.143 207.105 C 214.475 211.689,219.820 213.700,224.435 210.977 C 225.765 210.192,225.781 210.192,225.781 210.951 C 225.781 211.630,226.055 211.719,228.159 211.719 L 230.536 211.719 230.405 205.301 C 230.257 198.069,230.010 197.350,227.194 195.951 C 225.818 195.267,220.298 194.719,218.750 195.112 M237.264 195.339 C 234.765 195.943,233.789 197.253,233.789 200.000 C 233.789 203.559,234.681 204.261,240.748 205.472 C 243.039 205.929,243.983 206.787,242.928 207.455 C 242.228 207.898,236.968 207.897,235.059 207.454 L 233.594 207.114 233.594 209.203 L 233.594 211.293 235.059 211.601 C 237.850 212.188,245.388 211.953,246.722 211.236 C 248.313 210.382,248.976 208.710,248.732 206.173 C 248.450 203.232,247.894 202.870,241.674 201.577 C 239.370 201.098,238.463 200.254,239.494 199.548 C 240.081 199.146,246.236 199.347,247.363 199.806 C 247.965 200.050,248.047 199.827,248.047 197.939 C 248.047 196.048,247.943 195.765,247.168 195.547 C 245.536 195.089,238.879 194.949,237.264 195.339 M276.731 195.266 C 273.071 196.212,271.406 198.693,271.377 203.243 C 271.334 210.007,274.643 212.618,282.422 211.956 C 287.113 211.557,287.109 211.559,287.109 209.232 L 287.108 207.227 282.462 207.227 C 278.440 207.227,277.704 207.126,276.993 206.482 C 275.600 205.220,275.991 205.102,281.934 204.991 L 287.695 204.883 287.805 202.539 C 288.068 196.929,283.048 193.633,276.731 195.266 M291.016 203.301 L 291.016 211.719 293.750 211.719 L 296.484 211.719 296.487 208.105 C 296.490 201.639,297.550 200.123,301.822 200.477 L 303.906 200.650 303.906 197.742 L 303.906 194.834 301.201 194.987 C 298.301 195.150,297.178 195.770,296.364 197.656 C 295.966 198.579,295.931 198.537,295.725 196.875 L 295.508 195.117 293.262 195.000 L 291.016 194.883 291.016 203.301 M282.335 199.436 C 284.373 200.864,283.504 201.563,279.688 201.563 C 276.466 201.563,276.172 201.499,276.172 200.803 C 276.172 199.674,277.678 198.828,279.688 198.828 C 280.666 198.828,281.857 199.102,282.335 199.436 M225.781 205.682 C 225.781 207.062,223.968 208.203,221.776 208.203 C 218.975 208.203,217.935 207.120,219.364 205.692 C 220.245 204.811,225.781 204.802,225.781 205.682 " stroke="none" fill="#fc4708" fill-rule="evenodd"></path><path id="path2" d="M159.932 203.320 C 159.932 208.047,159.989 209.927,160.057 207.498 C 160.126 205.069,160.126 201.202,160.057 198.904 C 159.988 196.606,159.932 198.594,159.932 203.320 M185.713 203.320 C 185.714 208.047,185.770 209.927,185.839 207.498 C 185.907 205.069,185.907 201.202,185.838 198.904 C 185.769 196.606,185.713 198.594,185.713 203.320 M139.985 205.859 C 139.985 207.900,140.050 208.735,140.131 207.715 C 140.211 206.694,140.211 205.024,140.131 204.004 C 140.050 202.983,139.985 203.818,139.985 205.859 M296.609 207.422 C 296.609 208.818,296.680 209.390,296.767 208.691 C 296.854 207.993,296.854 206.851,296.767 206.152 C 296.680 205.454,296.609 206.025,296.609 207.422 " stroke="none" fill="#fcba9e" fill-rule="evenodd"></path><path id="path3" d="M257.422 193.164 C 257.422 195.706,257.532 197.677,257.666 197.542 C 257.936 197.272,257.868 188.988,257.594 188.714 C 257.499 188.619,257.422 190.622,257.422 193.164 M304.040 197.852 C 304.042 199.570,304.110 200.225,304.193 199.306 C 304.275 198.387,304.274 196.981,304.190 196.181 C 304.106 195.381,304.039 196.133,304.040 197.852 M214.934 198.828 C 214.934 199.580,215.015 199.888,215.113 199.512 C 215.211 199.136,215.211 198.521,215.113 198.145 C 215.015 197.769,214.934 198.076,214.934 198.828 M287.997 202.344 C 287.997 203.311,288.073 203.706,288.166 203.223 C 288.259 202.739,288.259 201.948,288.166 201.465 C 288.073 200.981,287.997 201.377,287.997 202.344 M176.716 206.641 C 176.716 209.541,176.777 210.728,176.852 209.277 C 176.927 207.827,176.927 205.454,176.852 204.004 C 176.777 202.554,176.716 203.740,176.716 206.641 M135.307 207.031 C 135.307 209.717,135.369 210.815,135.445 209.473 C 135.522 208.130,135.522 205.933,135.445 204.590 C 135.369 203.247,135.307 204.346,135.307 207.031 M257.571 207.227 C 257.572 209.805,257.635 210.809,257.711 209.457 C 257.788 208.106,257.787 205.997,257.710 204.770 C 257.633 203.543,257.570 204.648,257.571 207.227 M233.324 209.180 C 233.326 210.469,233.399 210.949,233.486 210.247 C 233.573 209.545,233.571 208.490,233.482 207.903 C 233.393 207.316,233.322 207.891,233.324 209.180 M139.934 210.547 C 139.934 211.299,140.015 211.606,140.113 211.230 C 140.211 210.854,140.211 210.239,140.113 209.863 C 140.015 209.487,139.934 209.795,139.934 210.547 " stroke="none" fill="#fcccbc" fill-rule="evenodd"></path><path id="path4" d="M185.541 190.936 L 185.730 193.164 185.857 191.254 C 185.927 190.204,185.842 189.201,185.668 189.026 C 185.494 188.852,185.437 189.711,185.541 190.936 M180.245 203.320 C 180.245 208.047,180.301 209.927,180.370 207.498 C 180.439 205.069,180.438 201.202,180.369 198.904 C 180.300 196.606,180.244 198.594,180.245 203.320 M248.168 197.852 C 248.170 199.141,248.243 199.621,248.330 198.919 C 248.417 198.217,248.415 197.162,248.326 196.575 C 248.237 195.988,248.166 196.563,248.168 197.852 M104.816 200.977 C 104.817 202.480,104.888 203.048,104.973 202.237 C 105.057 201.427,105.056 200.196,104.969 199.503 C 104.883 198.810,104.814 199.473,104.816 200.977 M110.284 200.977 C 110.286 202.480,110.357 203.048,110.441 202.237 C 110.526 201.427,110.524 200.196,110.438 199.503 C 110.352 198.810,110.283 199.473,110.284 200.977 M268.516 206.055 C 268.516 209.277,268.577 210.544,268.650 208.869 C 268.723 207.194,268.723 204.557,268.649 203.009 C 268.575 201.462,268.515 202.832,268.516 206.055 M156.013 206.445 C 156.014 209.453,156.075 210.632,156.150 209.065 C 156.224 207.498,156.224 205.037,156.149 203.596 C 156.074 202.155,156.013 203.437,156.013 206.445 M230.621 206.836 C 230.621 209.629,230.683 210.720,230.759 209.261 C 230.834 207.802,230.834 205.517,230.758 204.183 C 230.682 202.849,230.620 204.043,230.621 206.836 M150.541 207.031 C 150.541 209.717,150.604 210.815,150.680 209.473 C 150.756 208.130,150.756 205.933,150.680 204.590 C 150.604 203.247,150.541 204.346,150.541 207.031 M263.041 207.031 C 263.041 209.717,263.104 210.815,263.180 209.473 C 263.256 208.130,263.256 205.933,263.180 204.590 C 263.104 203.247,263.041 204.346,263.041 207.031 M165.384 207.227 C 165.384 209.805,165.447 210.809,165.524 209.457 C 165.600 208.106,165.600 205.997,165.523 204.770 C 165.445 203.543,165.383 204.648,165.384 207.227 " stroke="none" fill="#fca47c" fill-rule="evenodd"></path></g></svg>