<svg xmlns="http://www.w3.org/2000/svg" xmlns:xlink="http://www.w3.org/1999/xlink" width="250" zoomAndPan="magnify" viewBox="0 0 187.5 30.000001" height="40" preserveAspectRatio="xMidYMid meet" version="1.0"><defs><clipPath id="c3c8ffc496"><path d="M 2.78125 0 L 184.234375 0 L 184.234375 29.03125 L 2.78125 29.03125 Z M 2.78125 0 " clip-rule="nonzero"/></clipPath></defs><g clip-path="url(#c3c8ffc496)"><path fill="#fcfbfb" d="M -89.992188 13.785156 L -89.992188 192.445312 L 267.328125 192.445312 L 267.328125 -164.875 L -89.992188 -164.875 L -89.992188 13.785156 M 75.933594 5.757812 L 75.933594 7.675781 L 73.402344 7.78125 L 70.871094 7.882812 L 70.871094 3.632812 L 73.402344 3.738281 L 75.933594 3.839844 L 75.933594 5.757812 M 140.3125 7.390625 L 140.3125 11.113281 L 141.203125 10.277344 C 142.546875 9.015625 146.292969 8.863281 147.960938 10.003906 C 149.71875 11.207031 150.027344 12.484375 150.054688 18.757812 L 150.082031 24.253906 L 144.847656 24.253906 L 144.847656 19.78125 C 144.847656 14.847656 144.65625 14.277344 142.878906 13.925781 C 140.734375 13.507812 140.3125 14.457031 140.3125 19.714844 L 140.3125 24.253906 L 135.078125 24.253906 L 135.078125 3.664062 L 140.3125 3.664062 L 140.3125 7.390625 M 18.046875 5.226562 C 21.546875 6.265625 22.71875 8.628906 22.71875 14.65625 C 22.71875 22.757812 20.527344 24.835938 12.292969 24.542969 C 5.351562 24.296875 3.699219 22.398438 3.699219 14.664062 C 3.699219 8.257812 4.921875 5.988281 8.878906 5.046875 C 10.839844 4.578125 16.222656 4.683594 18.046875 5.226562 M 10.917969 9.277344 C 7.621094 10.28125 7.90625 19.175781 11.257812 20.082031 C 16.128906 21.390625 18.136719 18.964844 17.441406 12.613281 C 17.09375 9.433594 14.589844 8.152344 10.917969 9.277344 M 30.742188 10.347656 L 30.742188 11.445312 L 31.585938 10.535156 C 33.207031 8.785156 37.210938 8.757812 38.699219 10.488281 C 39.472656 11.386719 39.574219 11.417969 39.890625 10.847656 C 40.734375 9.339844 45.234375 8.699219 47.128906 9.820312 C 49.121094 10.996094 49.402344 12 49.527344 18.40625 L 49.644531 24.253906 L 44.351562 24.253906 L 44.351562 19.714844 C 44.351562 14.882812 43.976562 13.785156 42.324219 13.785156 C 40.601562 13.785156 40.347656 14.476562 40.226562 19.511719 L 40.113281 24.253906 L 34.929688 24.253906 L 34.925781 19.628906 C 34.917969 14.519531 34.839844 14.238281 33.3125 13.933594 C 31.367188 13.542969 31.09375 14.238281 31.09375 19.566406 L 31.09375 24.253906 L 25.859375 24.253906 L 25.859375 9.25 L 30.742188 9.25 L 30.742188 10.347656 M 57.96875 10.46875 C 58.109375 11.265625 58.210938 11.375 58.390625 10.925781 C 59.082031 9.175781 64.339844 8.628906 66.003906 10.136719 C 67.574219 11.554688 67.828125 12.617188 68.007812 18.578125 L 68.179688 24.253906 L 62.929688 24.253906 L 62.785156 19.671875 C 62.625 14.457031 62.136719 13.488281 59.90625 13.9375 C 58.25 14.265625 58.144531 14.582031 58.019531 19.558594 L 57.90625 24.253906 L 52.726562 24.253906 L 52.726562 9.21875 L 55.253906 9.320312 C 57.761719 9.421875 57.785156 9.433594 57.96875 10.46875 M 76.105469 16.75 L 76.105469 24.253906 L 70.871094 24.253906 L 70.871094 9.25 L 76.105469 9.25 L 76.105469 16.75 M 83.585938 12.476562 C 84.613281 18.269531 84.507812 18.183594 85.398438 13.972656 C 85.84375 11.871094 86.285156 9.949219 86.378906 9.699219 C 86.617188 9.085938 90.972656 9.070312 91.195312 9.683594 C 91.285156 9.925781 91.726562 11.925781 92.179688 14.132812 L 93.007812 18.144531 L 93.617188 14.480469 C 94.574219 8.714844 94.207031 9.25 97.226562 9.25 C 98.761719 9.25 99.835938 9.394531 99.835938 9.601562 C 99.835938 9.796875 99.03125 13.175781 98.046875 17.105469 L 96.257812 24.253906 L 90.554688 24.253906 L 88.804688 17.097656 L 87.949219 20.589844 L 87.097656 24.078125 L 84.21875 24.179688 C 82.636719 24.234375 81.339844 24.234375 81.339844 24.179688 C 81.339844 24.125 80.488281 20.742188 79.453125 16.664062 L 77.570312 9.25 L 83.011719 9.25 L 83.585938 12.476562 M 113.433594 10.132812 C 115.695312 11.460938 116.046875 12.5625 116.179688 18.757812 L 116.296875 24.253906 L 113.824219 24.253906 C 111.941406 24.253906 111.351562 24.136719 111.351562 23.765625 C 111.351562 23.382812 111.078125 23.417969 110.054688 23.941406 C 106.960938 25.519531 102.433594 24.5 101.382812 21.988281 C 99.578125 17.667969 102.019531 15.179688 108.066406 15.179688 L 111.433594 15.179688 L 110.917969 14.398438 C 110.148438 13.242188 108.171875 12.902344 104.917969 13.375 C 101.632812 13.851562 101.746094 13.925781 102.140625 11.613281 C 102.519531 9.367188 102.804688 9.265625 108.382812 9.359375 C 111.535156 9.414062 112.441406 9.550781 113.433594 10.132812 M 131.328125 9.757812 C 131.8125 9.964844 131.9375 10.453125 131.9375 12.113281 C 131.9375 13.96875 131.867188 14.179688 131.328125 13.964844 C 130.992188 13.832031 129.75 13.558594 128.570312 13.359375 C 123.582031 12.511719 122.046875 14.226562 126.882812 15.242188 C 132.210938 16.355469 133.855469 18.609375 132.082031 22.351562 C 131.097656 24.425781 122.484375 25.558594 118.941406 24.082031 C 117.753906 23.589844 118.078125 19.929688 119.289062 20.167969 C 123.492188 21.007812 127.183594 20.835938 126.988281 19.808594 C 126.910156 19.410156 126.046875 19.066406 124.019531 18.632812 C 118.863281 17.523438 116.859375 14.308594 119.28125 11.042969 C 120.488281 9.414062 128.523438 8.554688 131.328125 9.757812 M 163.414062 9.613281 C 166.136719 10.367188 167.992188 13.839844 167.386719 17.058594 L 167.148438 18.320312 L 162.105469 18.320312 C 159.234375 18.320312 157.0625 18.460938 157.0625 18.644531 C 157.0625 19.957031 159.878906 20.632812 163.933594 20.289062 L 166.519531 20.070312 L 166.414062 22.074219 C 166.289062 24.457031 166.183594 24.503906 160.898438 24.546875 C 154.488281 24.59375 152.203125 22.632812 152.183594 17.066406 C 152.164062 10.707031 156.648438 7.730469 163.414062 9.613281 M 174.28125 10.28125 L 174.484375 11.3125 L 175.515625 10.28125 C 176.480469 9.320312 176.730469 9.25 179.195312 9.25 L 181.835938 9.25 L 181.835938 14.5625 L 180.253906 14.324219 C 176.339844 13.738281 175.207031 15.136719 175.207031 20.570312 L 175.207031 24.253906 L 169.972656 24.253906 L 169.972656 9.25 L 172.023438 9.25 C 174.015625 9.25 174.078125 9.277344 174.28125 10.28125 M 158.109375 13.1875 C 155.925781 14.289062 156.769531 15.179688 159.992188 15.179688 C 162.933594 15.179688 162.96875 15.167969 162.683594 14.394531 C 162.140625 12.910156 159.855469 12.308594 158.109375 13.1875 M 106.550781 18.679688 C 105.558594 19.082031 105.53125 20.261719 106.503906 20.785156 C 108.164062 21.675781 111.351562 20.496094 111.351562 18.992188 C 111.351562 18.246094 108.15625 18.035156 106.550781 18.679688 " fill-opacity="1" fill-rule="evenodd"/></g><path fill="#fc4708" d="M 71.304688 4.070312 C 69.78125 5.589844 71.128906 7.855469 73.554688 7.847656 C 75.519531 7.839844 75.816406 7.519531 75.691406 5.550781 L 75.582031 3.839844 L 73.660156 3.738281 C 72.46875 3.675781 71.574219 3.800781 71.304688 4.070312 M 135.078125 13.957031 L 135.078125 24.253906 L 139.964844 24.253906 L 139.964844 19.714844 C 139.964844 14.574219 140.300781 13.777344 142.492188 13.789062 C 144.765625 13.800781 145.199219 14.832031 145.199219 20.261719 L 145.199219 24.253906 L 149.734375 24.253906 L 149.734375 18.65625 C 149.734375 12.542969 149.425781 11.144531 147.855469 10.117188 C 145.746094 8.730469 142.421875 9.171875 140.847656 11.042969 L 139.964844 12.09375 L 139.964844 3.664062 L 135.078125 3.664062 L 135.078125 13.957031 M 9.511719 5.085938 C 5.183594 5.9375 4.050781 7.925781 4.050781 14.65625 C 4.050781 22.207031 5.515625 24.035156 11.9375 24.484375 C 19.785156 25.035156 22.542969 22.480469 22.542969 14.65625 C 22.542969 6.335938 18.449219 3.328125 9.511719 5.085938 M 15.90625 9.246094 C 17.195312 9.734375 17.832031 11.523438 17.832031 14.65625 C 17.832031 19.253906 16.882812 20.414062 13.117188 20.414062 C 9.808594 20.414062 8.871094 19.515625 8.507812 16 C 7.90625 10.210938 11.007812 7.382812 15.90625 9.246094 M 25.859375 16.75 L 25.859375 24.253906 L 30.742188 24.253906 L 30.742188 19.792969 C 30.742188 14.613281 31.054688 13.785156 33.011719 13.785156 C 34.96875 13.785156 35.28125 14.613281 35.28125 19.792969 L 35.28125 24.253906 L 40.164062 24.253906 L 40.164062 19.566406 C 40.164062 14.316406 40.371094 13.785156 42.414062 13.785156 C 44.28125 13.785156 44.511719 14.390625 44.648438 19.59375 L 44.769531 24.253906 L 49.238281 24.253906 L 49.230469 18.757812 C 49.222656 12.316406 48.800781 10.828125 46.699219 9.832031 C 44.410156 8.746094 41.179688 9.335938 40.222656 11.015625 C 39.597656 12.113281 39.117188 12.34375 39.117188 11.542969 C 39.117188 9.03125 32.9375 8.617188 31.472656 11.027344 L 30.835938 12.070312 L 30.613281 10.660156 L 30.386719 9.25 L 25.859375 9.25 L 25.859375 16.75 M 53.074219 16.75 L 53.074219 24.253906 L 57.613281 24.253906 L 57.613281 20.5 C 57.613281 14.816406 58.046875 13.800781 60.472656 13.789062 C 62.546875 13.78125 62.847656 14.535156 62.847656 19.792969 L 62.847656 24.253906 L 67.730469 24.253906 L 67.722656 19.28125 C 67.71875 16.546875 67.570312 13.679688 67.394531 12.910156 C 66.570312 9.34375 61.578125 8.019531 58.929688 10.667969 C 57.644531 11.953125 57.613281 11.949219 57.613281 10.46875 L 57.613281 9.25 L 53.074219 9.25 L 53.074219 16.75 M 71.222656 16.75 L 71.222656 24.253906 L 75.757812 24.253906 L 75.757812 9.25 L 71.222656 9.25 L 71.222656 16.75 M 78.082031 10.207031 C 78.214844 10.734375 79.050781 14.070312 79.941406 17.621094 L 81.558594 24.078125 L 84.207031 24.179688 L 86.859375 24.28125 L 87.597656 21.039062 C 88.003906 19.253906 88.433594 17.40625 88.550781 16.925781 C 88.722656 16.242188 88.914062 16.65625 89.429688 18.84375 C 89.789062 20.378906 90.246094 22.222656 90.4375 22.945312 L 90.789062 24.253906 L 95.96875 24.253906 L 96.316406 22.945312 C 96.503906 22.222656 97.355469 18.847656 98.207031 15.441406 L 99.753906 9.25 L 94.699219 9.25 L 93.878906 14.21875 C 93.429688 16.957031 93.007812 18.957031 92.945312 18.667969 C 92.882812 18.382812 92.40625 16.183594 91.882812 13.785156 L 90.9375 9.421875 L 88.800781 9.320312 L 86.667969 9.21875 L 85.664062 13.929688 C 85.113281 16.519531 84.570312 18.527344 84.460938 18.394531 C 84.351562 18.257812 83.972656 16.339844 83.621094 14.132812 C 82.78125 8.847656 83.058594 9.25 80.25 9.25 L 77.839844 9.25 L 78.082031 10.207031 M 105.417969 9.417969 C 105.128906 9.492188 104.304688 9.648438 103.585938 9.765625 L 102.277344 9.976562 L 102.277344 13.710938 L 103.585938 13.40625 C 106.980469 12.621094 111.027344 13.234375 111.285156 14.578125 C 111.386719 15.109375 111.058594 15.179688 108.496094 15.183594 C 102.957031 15.1875 101.039062 16.503906 101.304688 20.132812 C 101.597656 24.226562 106.375 26.023438 110.496094 23.589844 C 111.683594 22.890625 111.699219 22.890625 111.699219 23.566406 C 111.699219 24.171875 111.945312 24.253906 113.824219 24.253906 L 115.945312 24.253906 L 115.828125 18.519531 C 115.699219 12.058594 115.476562 11.417969 112.960938 10.167969 C 111.730469 9.554688 106.800781 9.066406 105.417969 9.417969 M 121.957031 9.621094 C 119.722656 10.160156 118.851562 11.332031 118.851562 13.785156 C 118.851562 16.964844 119.648438 17.589844 125.070312 18.671875 C 127.117188 19.082031 127.957031 19.847656 127.015625 20.445312 C 126.390625 20.839844 121.691406 20.839844 119.988281 20.441406 L 118.679688 20.140625 L 118.679688 23.871094 L 119.988281 24.148438 C 122.480469 24.671875 129.214844 24.460938 130.40625 23.820312 C 131.828125 23.058594 132.417969 21.566406 132.203125 19.296875 C 131.949219 16.671875 131.453125 16.347656 125.894531 15.191406 C 123.839844 14.765625 123.027344 14.011719 123.949219 13.378906 C 124.472656 13.019531 129.972656 13.199219 130.976562 13.609375 C 131.515625 13.828125 131.589844 13.628906 131.589844 11.941406 C 131.589844 10.253906 131.496094 10 130.804688 9.804688 C 129.347656 9.398438 123.398438 9.273438 121.957031 9.621094 M 157.210938 9.554688 C 153.941406 10.402344 152.457031 12.617188 152.429688 16.679688 C 152.390625 22.722656 155.347656 25.054688 162.296875 24.464844 C 166.488281 24.109375 166.484375 24.109375 166.484375 22.03125 L 166.484375 20.238281 L 162.332031 20.238281 C 158.738281 20.238281 158.082031 20.148438 157.445312 19.574219 C 156.203125 18.449219 156.550781 18.34375 161.859375 18.242188 L 167.007812 18.144531 L 167.105469 16.050781 C 167.339844 11.039062 162.855469 8.097656 157.210938 9.554688 M 169.972656 16.734375 L 169.972656 24.253906 L 174.859375 24.253906 L 174.859375 21.023438 C 174.863281 15.25 175.808594 13.894531 179.625 14.210938 L 181.488281 14.363281 L 181.488281 9.167969 L 179.070312 9.304688 C 176.480469 9.453125 175.476562 10.003906 174.75 11.691406 C 174.394531 12.515625 174.363281 12.476562 174.179688 10.992188 L 173.988281 9.421875 L 171.980469 9.316406 L 169.972656 9.214844 L 169.972656 16.734375 M 162.21875 13.28125 C 164.039062 14.554688 163.261719 15.179688 159.855469 15.179688 C 156.976562 15.179688 156.714844 15.125 156.714844 14.5 C 156.714844 13.492188 158.058594 12.738281 159.855469 12.738281 C 160.726562 12.738281 161.792969 12.980469 162.21875 13.28125 M 111.699219 18.859375 C 111.699219 20.09375 110.078125 21.113281 108.121094 21.113281 C 105.621094 21.113281 104.691406 20.144531 105.964844 18.867188 C 106.753906 18.082031 111.699219 18.074219 111.699219 18.859375 " fill-opacity="1" fill-rule="evenodd"/><path fill="#fcba9e" d="M 52.875 16.75 C 52.875 20.972656 52.925781 22.652344 52.988281 20.480469 C 53.050781 18.3125 53.050781 14.859375 52.988281 12.804688 C 52.925781 10.753906 52.875 12.527344 52.875 16.75 M 75.90625 16.75 C 75.90625 20.972656 75.957031 22.652344 76.019531 20.480469 C 76.078125 18.3125 76.078125 14.859375 76.019531 12.804688 C 75.957031 10.753906 75.90625 12.527344 75.90625 16.75 M 35.058594 19.019531 C 35.058594 20.839844 35.113281 21.585938 35.1875 20.675781 C 35.257812 19.765625 35.257812 18.273438 35.1875 17.359375 C 35.113281 16.449219 35.058594 17.195312 35.058594 19.019531 M 174.96875 20.414062 C 174.96875 21.660156 175.035156 22.171875 175.109375 21.546875 C 175.1875 20.925781 175.1875 19.902344 175.109375 19.28125 C 175.035156 18.65625 174.96875 19.167969 174.96875 20.414062 " fill-opacity="1" fill-rule="evenodd"/><path fill="#fcccbc" d="M 139.964844 7.675781 C 139.964844 9.949219 140.0625 11.710938 140.183594 11.589844 C 140.421875 11.347656 140.363281 3.945312 140.117188 3.703125 C 140.03125 3.617188 139.964844 5.40625 139.964844 7.675781 M 181.609375 11.867188 C 181.609375 13.398438 181.671875 13.984375 181.746094 13.164062 C 181.816406 12.34375 181.816406 11.085938 181.742188 10.371094 C 181.667969 9.65625 181.605469 10.328125 181.609375 11.867188 M 102.007812 12.738281 C 102.007812 13.410156 102.082031 13.683594 102.167969 13.347656 C 102.257812 13.011719 102.257812 12.464844 102.167969 12.128906 C 102.082031 11.792969 102.007812 12.066406 102.007812 12.738281 M 167.277344 15.878906 C 167.277344 16.742188 167.34375 17.09375 167.425781 16.664062 C 167.511719 16.230469 167.511719 15.523438 167.425781 15.09375 C 167.34375 14.660156 167.277344 15.015625 167.277344 15.878906 M 67.867188 19.714844 C 67.867188 22.308594 67.921875 23.367188 67.992188 22.070312 C 68.058594 20.777344 68.058594 18.65625 67.992188 17.359375 C 67.921875 16.066406 67.867188 17.125 67.867188 19.714844 M 30.878906 20.066406 C 30.878906 22.464844 30.933594 23.445312 31 22.246094 C 31.070312 21.046875 31.070312 19.085938 31 17.882812 C 30.933594 16.683594 30.878906 17.667969 30.878906 20.066406 M 140.097656 20.238281 C 140.097656 22.542969 140.152344 23.441406 140.222656 22.230469 C 140.289062 21.023438 140.289062 19.140625 140.222656 18.046875 C 140.152344 16.949219 140.097656 17.9375 140.097656 20.238281 M 118.4375 21.984375 C 118.4375 23.136719 118.503906 23.566406 118.582031 22.9375 C 118.660156 22.3125 118.65625 21.367188 118.578125 20.84375 C 118.5 20.320312 118.433594 20.832031 118.4375 21.984375 M 35.011719 23.207031 C 35.011719 23.878906 35.082031 24.152344 35.171875 23.816406 C 35.257812 23.480469 35.257812 22.929688 35.171875 22.59375 C 35.082031 22.257812 35.011719 22.535156 35.011719 23.207031 " fill-opacity="1" fill-rule="evenodd"/><path fill="#fca47c" d="M 75.753906 5.6875 L 75.921875 7.675781 L 76.035156 5.972656 C 76.097656 5.035156 76.019531 4.136719 75.867188 3.980469 C 75.710938 3.824219 75.660156 4.59375 75.753906 5.6875 M 71.023438 16.75 C 71.023438 20.972656 71.070312 22.652344 71.132812 20.480469 C 71.195312 18.3125 71.195312 14.859375 71.132812 12.804688 C 71.070312 10.753906 71.019531 12.527344 71.023438 16.75 M 131.699219 11.867188 C 131.699219 13.015625 131.765625 13.445312 131.84375 12.820312 C 131.917969 12.191406 131.917969 11.25 131.839844 10.726562 C 131.757812 10.199219 131.695312 10.714844 131.699219 11.867188 M 3.640625 14.65625 C 3.640625 16 3.703125 16.507812 3.78125 15.78125 C 3.855469 15.058594 3.855469 13.960938 3.777344 13.339844 C 3.699219 12.722656 3.640625 13.3125 3.640625 14.65625 M 8.523438 14.65625 C 8.527344 16 8.589844 16.507812 8.664062 15.78125 C 8.742188 15.058594 8.738281 13.960938 8.664062 13.339844 C 8.585938 12.722656 8.523438 13.3125 8.523438 14.65625 M 149.875 19.191406 C 149.875 22.070312 149.929688 23.203125 149.992188 21.707031 C 150.058594 20.210938 150.058594 17.855469 149.992188 16.472656 C 149.925781 15.089844 149.875 16.3125 149.875 19.191406 M 49.375 19.542969 C 49.375 22.230469 49.429688 23.28125 49.496094 21.882812 C 49.5625 20.480469 49.5625 18.285156 49.496094 16.996094 C 49.429688 15.710938 49.375 16.855469 49.375 19.542969 M 116.023438 19.890625 C 116.023438 22.386719 116.078125 23.359375 116.144531 22.058594 C 116.210938 20.753906 116.210938 18.710938 116.144531 17.519531 C 116.078125 16.328125 116.023438 17.394531 116.023438 19.890625 M 44.488281 20.066406 C 44.488281 22.464844 44.542969 23.445312 44.609375 22.246094 C 44.679688 21.046875 44.679688 19.085938 44.609375 17.882812 C 44.542969 16.683594 44.488281 17.667969 44.488281 20.066406 M 144.984375 20.066406 C 144.984375 22.464844 145.039062 23.445312 145.109375 22.246094 C 145.175781 21.046875 145.175781 19.085938 145.109375 17.882812 C 145.039062 16.683594 144.984375 17.667969 144.984375 20.066406 M 57.746094 20.238281 C 57.746094 22.542969 57.800781 23.441406 57.871094 22.230469 C 57.9375 21.023438 57.9375 19.140625 57.871094 18.046875 C 57.800781 16.949219 57.746094 17.9375 57.746094 20.238281 " fill-opacity="1" fill-rule="evenodd"/></svg>