<svg xmlns="http://www.w3.org/2000/svg" xmlns:xlink="http://www.w3.org/1999/xlink" width="800" zoomAndPan="magnify" viewBox="0 0 600 449.999984" height="600" preserveAspectRatio="xMidYMid meet" version="1.0"><defs><clipPath id="503a3674e0"><path d="M 154.28125 189.738281 L 351.53125 189.738281 L 351.53125 236.988281 L 154.28125 236.988281 Z M 154.28125 189.738281 " clip-rule="nonzero"/></clipPath></defs><g clip-path="url(#503a3674e0)"><path fill="#fcfbfb" d="M 73.207031 213.394531 L 73.207031 390.394531 L 427.207031 390.394531 L 427.207031 36.394531 L 73.207031 36.394531 L 73.207031 213.394531 M 237.589844 205.441406 L 237.589844 207.34375 L 235.082031 207.445312 L 232.578125 207.546875 L 232.578125 203.335938 L 235.082031 203.4375 L 237.589844 203.539062 L 237.589844 205.441406 M 301.371094 207.058594 L 301.371094 210.746094 L 302.253906 209.921875 C 303.585938 208.667969 307.296875 208.519531 308.949219 209.648438 C 310.691406 210.839844 310.996094 212.105469 311.023438 218.320312 L 311.050781 223.765625 L 305.867188 223.765625 L 305.867188 219.335938 C 305.867188 214.445312 305.675781 213.878906 303.914062 213.535156 C 301.789062 213.117188 301.371094 214.0625 301.371094 219.269531 L 301.371094 223.765625 L 296.1875 223.765625 L 296.1875 203.367188 L 301.371094 203.367188 L 301.371094 207.058594 M 180.242188 204.914062 C 183.710938 205.945312 184.871094 208.285156 184.871094 214.257812 C 184.871094 222.28125 182.699219 224.34375 174.542969 224.054688 C 167.667969 223.808594 166.03125 221.929688 166.03125 214.265625 C 166.03125 207.917969 167.238281 205.667969 171.160156 204.734375 C 173.101562 204.273438 178.433594 204.378906 180.242188 204.914062 M 173.179688 208.925781 C 169.914062 209.921875 170.195312 218.734375 173.519531 219.632812 C 178.339844 220.929688 180.332031 218.523438 179.644531 212.234375 C 179.300781 209.082031 176.820312 207.8125 173.179688 208.925781 M 192.820312 209.988281 L 192.820312 211.074219 L 193.65625 210.171875 C 195.265625 208.4375 199.230469 208.414062 200.703125 210.128906 C 201.46875 211.015625 201.570312 211.046875 201.882812 210.484375 C 202.71875 208.988281 207.175781 208.355469 209.054688 209.464844 C 211.027344 210.628906 211.304688 211.625 211.433594 217.972656 L 211.546875 223.765625 L 206.304688 223.765625 L 206.304688 219.269531 C 206.304688 214.480469 205.933594 213.394531 204.296875 213.394531 C 202.585938 213.394531 202.335938 214.078125 202.214844 219.070312 L 202.101562 223.765625 L 196.96875 223.765625 L 196.964844 219.183594 C 196.957031 214.121094 196.878906 213.839844 195.367188 213.539062 C 193.4375 213.152344 193.167969 213.84375 193.167969 219.121094 L 193.167969 223.765625 L 187.980469 223.765625 L 187.980469 208.898438 L 192.820312 208.898438 L 192.820312 209.988281 M 219.792969 210.109375 C 219.933594 210.898438 220.03125 211.003906 220.210938 210.558594 C 220.894531 208.824219 226.105469 208.285156 227.753906 209.777344 C 229.308594 211.1875 229.558594 212.238281 229.738281 218.140625 L 229.910156 223.765625 L 224.707031 223.765625 L 224.566406 219.226562 C 224.40625 214.058594 223.925781 213.101562 221.710938 213.542969 C 220.070312 213.871094 219.964844 214.183594 219.84375 219.113281 L 219.730469 223.765625 L 214.601562 223.765625 L 214.601562 208.867188 L 217.105469 208.96875 C 219.585938 209.070312 219.609375 209.082031 219.792969 210.109375 M 237.761719 216.332031 L 237.761719 223.765625 L 232.578125 223.765625 L 232.578125 208.898438 L 237.761719 208.898438 L 237.761719 216.332031 M 245.171875 212.097656 C 246.191406 217.835938 246.085938 217.75 246.96875 213.582031 C 247.40625 211.5 247.847656 209.59375 247.941406 209.347656 C 248.175781 208.738281 252.488281 208.722656 252.710938 209.332031 C 252.800781 209.570312 253.238281 211.550781 253.6875 213.738281 L 254.503906 217.714844 L 255.109375 214.085938 C 256.058594 208.371094 255.695312 208.898438 258.683594 208.898438 C 260.207031 208.898438 261.269531 209.042969 261.269531 209.25 C 261.269531 209.445312 260.472656 212.789062 259.5 216.683594 L 257.726562 223.765625 L 252.078125 223.765625 L 251.210938 220.21875 L 250.339844 216.675781 L 248.652344 223.589844 L 245.800781 223.691406 C 244.230469 223.746094 242.949219 223.746094 242.945312 223.691406 C 242.945312 223.636719 242.105469 220.285156 241.078125 216.246094 L 239.214844 208.898438 L 244.605469 208.898438 L 245.171875 212.097656 M 274.742188 209.777344 C 276.984375 211.089844 277.332031 212.183594 277.460938 218.320312 L 277.578125 223.765625 L 275.128906 223.765625 C 273.265625 223.765625 272.679688 223.648438 272.679688 223.28125 C 272.679688 222.902344 272.410156 222.9375 271.394531 223.457031 C 268.328125 225.019531 263.84375 224.007812 262.804688 221.519531 C 261.015625 217.238281 263.433594 214.777344 269.425781 214.777344 L 272.761719 214.777344 L 272.25 214 C 271.488281 212.855469 269.527344 212.519531 266.308594 212.988281 C 263.050781 213.460938 263.164062 213.53125 263.554688 211.242188 C 263.933594 209.015625 264.214844 208.917969 269.738281 209.011719 C 272.859375 209.0625 273.757812 209.199219 274.742188 209.777344 M 292.46875 209.402344 C 292.949219 209.609375 293.074219 210.09375 293.074219 211.738281 C 293.074219 213.574219 293.003906 213.785156 292.46875 213.570312 C 292.136719 213.4375 290.910156 213.167969 289.738281 212.972656 C 284.796875 212.132812 283.273438 213.832031 288.066406 214.835938 C 293.34375 215.941406 294.976562 218.171875 293.214844 221.878906 C 292.242188 223.933594 283.707031 225.058594 280.199219 223.597656 C 279.019531 223.105469 279.34375 219.480469 280.542969 219.71875 C 284.707031 220.550781 288.367188 220.378906 288.171875 219.363281 C 288.09375 218.96875 287.238281 218.628906 285.230469 218.195312 C 280.121094 217.097656 278.136719 213.914062 280.535156 210.675781 C 281.734375 209.0625 289.691406 208.214844 292.46875 209.402344 M 324.261719 209.257812 C 326.957031 210.007812 328.792969 213.449219 328.195312 216.636719 L 327.960938 217.886719 L 322.964844 217.886719 C 320.117188 217.886719 317.964844 218.023438 317.964844 218.207031 C 317.964844 219.507812 320.757812 220.175781 324.773438 219.839844 L 327.335938 219.621094 L 327.230469 221.605469 C 327.109375 223.964844 327.003906 224.011719 321.769531 224.054688 C 315.414062 224.101562 313.152344 222.160156 313.132812 216.644531 C 313.113281 210.34375 317.554688 207.394531 324.261719 209.257812 M 335.023438 209.921875 L 335.226562 210.941406 L 336.25 209.921875 C 337.203125 208.96875 337.449219 208.898438 339.890625 208.898438 L 342.511719 208.898438 L 342.511719 214.164062 L 340.945312 213.925781 C 337.0625 213.347656 335.941406 214.734375 335.941406 220.117188 L 335.941406 223.765625 L 330.757812 223.765625 L 330.757812 208.898438 L 332.789062 208.898438 C 334.761719 208.898438 334.824219 208.929688 335.023438 209.921875 M 319.003906 212.800781 C 316.839844 213.890625 317.675781 214.777344 320.871094 214.777344 C 323.785156 214.777344 323.816406 214.765625 323.535156 214 C 323 212.527344 320.734375 211.929688 319.003906 212.800781 M 267.925781 218.242188 C 266.941406 218.640625 266.914062 219.8125 267.878906 220.328125 C 269.523438 221.210938 272.679688 220.042969 272.679688 218.554688 C 272.679688 217.8125 269.515625 217.605469 267.925781 218.242188 " fill-opacity="1" fill-rule="evenodd"/></g><path fill="#fc4708" d="M 233.007812 203.769531 C 231.496094 205.277344 232.832031 207.519531 235.234375 207.511719 C 237.179688 207.503906 237.476562 207.1875 237.351562 205.234375 L 237.246094 203.539062 L 235.339844 203.4375 C 234.15625 203.375 233.273438 203.5 233.007812 203.769531 M 296.1875 213.566406 L 296.1875 223.765625 L 301.027344 223.765625 L 301.027344 219.269531 C 301.027344 214.175781 301.363281 213.386719 303.53125 213.398438 C 305.785156 213.410156 306.210938 214.429688 306.210938 219.8125 L 306.210938 223.765625 L 310.707031 223.765625 L 310.707031 218.222656 C 310.707031 212.164062 310.402344 210.777344 308.847656 209.757812 C 306.753906 208.386719 303.460938 208.824219 301.902344 210.675781 L 301.027344 211.71875 L 301.027344 203.367188 L 296.1875 203.367188 L 296.1875 213.566406 M 171.785156 204.777344 C 167.5 205.617188 166.375 207.585938 166.375 214.257812 C 166.375 221.738281 167.828125 223.546875 174.191406 223.996094 C 181.964844 224.539062 184.699219 222.007812 184.699219 214.257812 C 184.699219 206.011719 180.644531 203.035156 171.785156 204.777344 M 178.125 208.894531 C 179.398438 209.382812 180.03125 211.15625 180.03125 214.257812 C 180.03125 218.8125 179.089844 219.960938 175.359375 219.960938 C 172.082031 219.960938 171.152344 219.070312 170.792969 215.589844 C 170.195312 209.851562 173.265625 207.050781 178.125 208.894531 M 187.980469 216.332031 L 187.980469 223.765625 L 192.820312 223.765625 L 192.820312 219.347656 C 192.820312 214.214844 193.132812 213.394531 195.066406 213.394531 C 197.007812 213.394531 197.316406 214.214844 197.316406 219.347656 L 197.316406 223.765625 L 202.15625 223.765625 L 202.15625 219.121094 C 202.15625 213.921875 202.359375 213.394531 204.382812 213.394531 C 206.234375 213.394531 206.460938 213.992188 206.597656 219.148438 L 206.71875 223.765625 L 211.144531 223.765625 L 211.136719 218.320312 C 211.128906 211.9375 210.707031 210.464844 208.628906 209.476562 C 206.359375 208.402344 203.160156 208.984375 202.210938 210.648438 C 201.59375 211.738281 201.117188 211.964844 201.117188 211.171875 C 201.117188 208.6875 194.996094 208.273438 193.542969 210.660156 L 192.914062 211.695312 L 192.46875 208.898438 L 187.980469 208.898438 L 187.980469 216.332031 M 214.945312 216.332031 L 214.945312 223.765625 L 219.441406 223.765625 L 219.441406 220.046875 C 219.441406 214.414062 219.871094 213.40625 222.273438 213.398438 C 224.328125 213.390625 224.625 214.136719 224.625 219.347656 L 224.625 223.765625 L 229.464844 223.765625 L 229.457031 218.835938 C 229.453125 216.128906 229.304688 213.289062 229.128906 212.527344 C 228.3125 208.992188 223.371094 207.683594 220.746094 210.308594 C 219.472656 211.578125 219.441406 211.574219 219.441406 210.109375 L 219.441406 208.898438 L 214.945312 208.898438 L 214.945312 216.332031 M 232.921875 216.332031 L 232.921875 223.765625 L 237.417969 223.765625 L 237.417969 208.898438 L 232.921875 208.898438 L 232.921875 216.332031 M 239.71875 209.847656 C 239.851562 210.371094 240.679688 213.679688 241.5625 217.195312 L 243.164062 223.589844 L 248.414062 223.792969 L 249.144531 220.578125 C 249.546875 218.8125 249.972656 216.980469 250.09375 216.503906 C 250.261719 215.828125 250.449219 216.238281 250.960938 218.40625 C 251.320312 219.925781 251.769531 221.753906 251.960938 222.46875 L 252.308594 223.765625 L 257.441406 223.765625 L 257.78125 222.46875 C 257.96875 221.753906 258.8125 218.410156 259.65625 215.035156 L 261.191406 208.898438 L 256.183594 208.898438 L 255.371094 213.824219 C 254.921875 216.535156 254.507812 218.519531 254.445312 218.234375 C 254.382812 217.945312 253.910156 215.769531 253.390625 213.394531 L 252.453125 209.070312 L 248.226562 208.867188 L 247.230469 213.535156 C 246.683594 216.101562 246.148438 218.09375 246.039062 217.957031 C 245.929688 217.824219 245.554688 215.925781 245.207031 213.738281 C 244.375 208.5 244.648438 208.898438 241.867188 208.898438 L 239.476562 208.898438 L 239.71875 209.847656 M 266.800781 209.066406 C 266.515625 209.140625 265.699219 209.292969 264.988281 209.410156 L 263.691406 209.621094 L 263.691406 213.320312 L 264.988281 213.019531 C 268.347656 212.238281 272.359375 212.847656 272.613281 214.179688 C 272.714844 214.707031 272.390625 214.777344 269.851562 214.777344 C 264.363281 214.78125 262.464844 216.085938 262.726562 219.679688 C 263.019531 223.738281 267.75 225.515625 271.832031 223.109375 C 273.011719 222.414062 273.023438 222.414062 273.023438 223.085938 C 273.023438 223.683594 273.265625 223.765625 275.128906 223.765625 L 277.234375 223.765625 L 277.117188 218.085938 C 276.984375 211.683594 276.765625 211.046875 274.273438 209.808594 C 273.058594 209.203125 268.171875 208.71875 266.800781 209.066406 M 283.1875 209.269531 C 280.976562 209.800781 280.113281 210.960938 280.113281 213.394531 C 280.113281 216.542969 280.902344 217.164062 286.269531 218.234375 C 288.296875 218.640625 289.132812 219.398438 288.199219 219.992188 C 287.578125 220.382812 282.925781 220.382812 281.234375 219.988281 L 279.9375 219.6875 L 279.9375 223.386719 L 281.234375 223.660156 C 283.707031 224.179688 290.375 223.972656 291.558594 223.335938 C 292.964844 222.582031 293.550781 221.101562 293.335938 218.855469 C 293.085938 216.253906 292.59375 215.933594 287.089844 214.789062 C 285.050781 214.363281 284.246094 213.617188 285.160156 212.992188 C 285.679688 212.636719 291.128906 212.816406 292.125 213.222656 C 292.65625 213.4375 292.730469 213.238281 292.730469 211.570312 C 292.730469 209.894531 292.636719 209.644531 291.953125 209.453125 C 290.507812 209.046875 284.617188 208.921875 283.1875 209.269531 M 318.113281 209.203125 C 314.875 210.039062 313.402344 212.234375 313.375 216.261719 C 313.339844 222.25 316.265625 224.558594 323.152344 223.972656 C 327.304688 223.621094 327.300781 223.621094 327.300781 221.5625 L 327.296875 219.789062 L 323.1875 219.789062 C 319.628906 219.789062 318.976562 219.699219 318.347656 219.128906 C 317.113281 218.011719 317.460938 217.90625 322.71875 217.808594 L 327.816406 217.714844 L 327.914062 215.640625 C 328.148438 210.675781 323.707031 207.757812 318.113281 209.203125 M 330.757812 216.3125 L 330.757812 223.765625 L 335.597656 223.765625 L 335.597656 220.566406 C 335.601562 214.84375 336.539062 213.5 340.320312 213.816406 L 342.164062 213.96875 L 342.164062 208.820312 L 339.769531 208.957031 C 337.203125 209.101562 336.210938 209.648438 335.492188 211.320312 C 335.136719 212.136719 335.105469 212.097656 334.925781 210.628906 L 334.734375 209.070312 L 332.746094 208.96875 L 330.757812 208.863281 L 330.757812 216.3125 M 323.074219 212.894531 C 324.878906 214.15625 324.109375 214.777344 320.730469 214.777344 C 317.878906 214.777344 317.621094 214.71875 317.621094 214.105469 C 317.621094 213.105469 318.953125 212.355469 320.730469 212.355469 C 321.597656 212.355469 322.652344 212.597656 323.074219 212.894531 M 273.023438 218.421875 C 273.023438 219.644531 271.417969 220.652344 269.480469 220.652344 C 267 220.652344 266.082031 219.695312 267.34375 218.429688 C 268.125 217.652344 273.023438 217.644531 273.023438 218.421875 " fill-opacity="1" fill-rule="evenodd"/><path fill="#fcba9e" d="M 214.746094 216.332031 C 214.746094 220.515625 214.796875 222.179688 214.859375 220.027344 C 214.917969 217.878906 214.917969 214.457031 214.859375 212.421875 C 214.796875 210.390625 214.746094 212.148438 214.746094 216.332031 M 237.5625 216.332031 C 237.566406 220.515625 237.613281 222.179688 237.675781 220.027344 C 237.734375 217.878906 237.734375 214.457031 237.675781 212.421875 C 237.613281 210.390625 237.5625 212.148438 237.5625 216.332031 M 197.09375 218.578125 C 197.09375 220.382812 197.152344 221.125 197.222656 220.21875 C 197.292969 219.316406 197.292969 217.839844 197.222656 216.9375 C 197.152344 216.03125 197.09375 216.773438 197.09375 218.578125 M 335.707031 219.960938 C 335.707031 221.195312 335.769531 221.703125 335.847656 221.085938 C 335.925781 220.464844 335.925781 219.457031 335.847656 218.835938 C 335.769531 218.21875 335.707031 218.726562 335.707031 219.960938 " fill-opacity="1" fill-rule="evenodd"/><path fill="#fcccbc" d="M 301.027344 207.34375 C 301.027344 209.59375 301.125 211.335938 301.242188 211.21875 C 301.480469 210.980469 301.421875 203.648438 301.179688 203.40625 C 301.09375 203.320312 301.027344 205.09375 301.027344 207.34375 M 342.285156 211.492188 C 342.285156 213.011719 342.34375 213.59375 342.417969 212.777344 C 342.492188 211.964844 342.492188 210.722656 342.417969 210.011719 C 342.34375 209.304688 342.28125 209.96875 342.285156 211.492188 M 263.425781 212.355469 C 263.425781 213.019531 263.496094 213.292969 263.582031 212.960938 C 263.667969 212.628906 263.667969 212.085938 263.582031 211.75 C 263.496094 211.417969 263.425781 211.691406 263.425781 212.355469 M 328.085938 215.46875 C 328.085938 216.324219 328.152344 216.671875 328.234375 216.246094 C 328.316406 215.816406 328.316406 215.117188 328.234375 214.6875 C 328.152344 214.261719 328.085938 214.613281 328.085938 215.46875 M 229.601562 219.269531 C 229.601562 221.835938 229.65625 222.886719 229.722656 221.601562 C 229.789062 220.320312 229.789062 218.21875 229.722656 216.9375 C 229.65625 215.652344 229.601562 216.703125 229.601562 219.269531 M 192.953125 219.617188 C 192.953125 221.992188 193.007812 222.964844 193.078125 221.777344 C 193.144531 220.589844 193.144531 218.644531 193.078125 217.453125 C 193.007812 216.265625 192.953125 217.238281 192.953125 219.617188 M 301.160156 219.789062 C 301.160156 222.070312 301.214844 222.957031 301.28125 221.761719 C 301.351562 220.566406 301.351562 218.699219 301.28125 217.613281 C 301.214844 216.527344 301.15625 217.507812 301.160156 219.789062 M 279.699219 221.515625 C 279.703125 222.65625 279.765625 223.082031 279.84375 222.460938 C 279.921875 221.839844 279.917969 220.90625 279.839844 220.386719 C 279.761719 219.867188 279.699219 220.375 279.699219 221.515625 M 197.050781 222.726562 C 197.050781 223.390625 197.121094 223.664062 197.207031 223.332031 C 197.292969 223 197.292969 222.453125 197.207031 222.121094 C 197.121094 221.789062 197.050781 222.0625 197.050781 222.726562 " fill-opacity="1" fill-rule="evenodd"/><path fill="#fca47c" d="M 237.410156 205.371094 L 237.578125 207.34375 L 237.691406 205.652344 C 237.753906 204.722656 237.679688 203.835938 237.523438 203.679688 C 237.371094 203.527344 237.320312 204.289062 237.410156 205.371094 M 232.726562 216.332031 C 232.726562 220.515625 232.773438 222.179688 232.835938 220.027344 C 232.898438 217.878906 232.894531 214.457031 232.835938 212.421875 C 232.773438 210.390625 232.722656 212.148438 232.726562 216.332031 M 292.835938 211.492188 C 292.839844 212.632812 292.902344 213.058594 292.980469 212.4375 C 293.058594 211.816406 293.054688 210.882812 292.976562 210.363281 C 292.898438 209.84375 292.835938 210.351562 292.835938 211.492188 M 165.96875 214.257812 C 165.972656 215.585938 166.035156 216.089844 166.109375 215.371094 C 166.183594 214.65625 166.183594 213.566406 166.105469 212.953125 C 166.03125 212.339844 165.96875 212.925781 165.96875 214.257812 M 170.808594 214.257812 C 170.8125 215.585938 170.875 216.089844 170.949219 215.371094 C 171.023438 214.65625 171.023438 213.566406 170.945312 212.953125 C 170.871094 212.339844 170.808594 212.925781 170.808594 214.257812 M 310.84375 218.75 C 310.84375 221.601562 310.898438 222.722656 310.964844 221.242188 C 311.027344 219.757812 311.027344 217.425781 310.960938 216.054688 C 310.898438 214.6875 310.84375 215.898438 310.84375 218.75 M 211.28125 219.097656 C 211.28125 221.757812 211.335938 222.800781 211.402344 221.414062 C 211.464844 220.027344 211.464844 217.851562 211.398438 216.574219 C 211.332031 215.300781 211.28125 216.433594 211.28125 219.097656 M 277.308594 219.441406 C 277.308594 221.914062 277.363281 222.878906 277.429688 221.589844 C 277.496094 220.296875 277.496094 218.277344 277.429688 217.09375 C 277.363281 215.914062 277.308594 216.972656 277.308594 219.441406 M 206.4375 219.617188 C 206.4375 221.992188 206.492188 222.964844 206.558594 221.777344 C 206.628906 220.589844 206.628906 218.644531 206.558594 217.453125 C 206.492188 216.265625 206.4375 217.238281 206.4375 219.617188 M 306 219.617188 C 306 221.992188 306.054688 222.964844 306.121094 221.777344 C 306.191406 220.589844 306.191406 218.644531 306.121094 217.453125 C 306.054688 216.265625 306 217.238281 306 219.617188 M 219.574219 219.789062 C 219.574219 222.070312 219.628906 222.957031 219.695312 221.761719 C 219.765625 220.566406 219.765625 218.699219 219.695312 217.613281 C 219.628906 216.527344 219.570312 217.507812 219.574219 219.789062 " fill-opacity="1" fill-rule="evenodd"/></svg>